<?xml version="1.0" standalone="no"?><!DOCTYPE svg PUBLIC "-//W3C//DTD SVG 1.1//EN" "http://www.w3.org/Graphics/SVG/1.1/DTD/svg11.dtd"><svg t="1711287183294" class="icon" viewBox="0 0 1024 1024" version="1.1" xmlns="http://www.w3.org/2000/svg" p-id="1611" xmlns:xlink="http://www.w3.org/1999/xlink" width="200" height="200"><path d="M224.94208 67.62624h32.65408v80.67456h-32.65408zM317.83424 67.62624h32.65408v80.67456h-32.65408zM410.7264 67.62624h32.65408v80.67456H410.7264zM503.61856 67.62624h32.65408v80.67456h-32.65408zM596.50944 67.62624h32.65408v80.67456h-32.65408zM689.4016 67.62624h32.65408v80.67456h-32.65408zM785.86624 69.41312h32.65408v80.67456h-32.65408zM224.704 880.43008h32.65408v80.67456H224.704zM317.59488 880.43008h32.65408v80.67456h-32.65408zM410.48704 880.43008h32.65408v80.67456h-32.65408zM503.3792 880.43008h32.65408v80.67456h-32.65408zM596.27008 880.43008h32.65408v80.67456h-32.65408zM689.16224 880.43008h32.65408v80.67456h-32.65408zM785.62688 882.21568h32.65408v80.67456h-32.65408zM65.79328 224.72192h80.67456v32.65408H65.79328zM65.79328 317.61408h80.67456v32.65408H65.79328zM65.79328 410.50624h80.67456v32.65408H65.79328zM65.79328 503.39712h80.67456v32.65408H65.79328zM65.79328 596.28928h80.67456v32.65408H65.79328zM65.79328 689.18144h80.67456v32.65408H65.79328zM64.0064 785.64608h80.67456v32.65408H64.0064zM889.82144 224.72192H970.496v32.65408h-80.67456zM889.82144 317.61408H970.496v32.65408h-80.67456zM889.82144 410.50624H970.496v32.65408h-80.67456zM889.82144 503.39712H970.496v32.65408h-80.67456zM889.82144 596.28928H970.496v32.65408h-80.67456zM889.82144 689.18144H970.496v32.65408h-80.67456zM888.03456 785.64608h80.67456v32.65408h-80.67456zM826.53312 180.68736H207.2896c-19.95392 0-36.12928 15.99616-36.12928 35.72736v598.91712c0 19.7312 16.17536 35.72736 36.12928 35.72736h619.24352c19.95392 0 36.12928-15.99616 36.12928-35.72736V216.41472c0-19.7312-16.17536-35.72736-36.12928-35.72736z m-11.88608 590.36544v35.72736l-596.75008 1.28V228.9408H815.92704l-1.28 542.112z" fill="#1296db" p-id="1612"></path><path d="M297.93664 401.58336v320.25216h434.10944v-416.2944H359.40352z" fill="#1296db" p-id="1613"></path></svg>