<?xml version="1.0" standalone="no"?><!DOCTYPE svg PUBLIC "-//W3C//DTD SVG 1.1//EN" "http://www.w3.org/Graphics/SVG/1.1/DTD/svg11.dtd"><svg t="1711107969973" class="icon" viewBox="0 0 1024 1024" version="1.1" xmlns="http://www.w3.org/2000/svg" p-id="9568" xmlns:xlink="http://www.w3.org/1999/xlink" width="200" height="200"><path d="M117.077333 481.493333c6.613333 2.133333 35.285333 17.834667 71.893334 38.4l25.386666 14.336c61.312 34.730667 134.101333 76.672 164.821334 93.738667 30.464 12.202667 6.144 24.448 6.144 24.448l-85.333334 48.810667s48.682667 61.013333 115.754667 91.52c73.173333 36.693333 140.245333 42.752 225.578667 12.245333 54.826667-18.261333 121.856-73.258667 164.522666-152.576l91.477334 61.013333c12.16 0-67.072 122.026667-189.013334 183.082667-121.898667 67.2-274.304 48.853333-371.797333-18.261333-97.536-61.098667-134.101333-115.968-134.101333-115.968l-85.333334 54.912s-18.261333 6.144-18.261333-12.202667v-305.194667s0-24.448 18.261333-18.346666z m603.434667-335.786666c97.493333 61.141333 134.144 116.053333 134.144 116.053333l79.189333-54.954667s18.304-6.144 18.304 12.202667v305.194667s0 24.448-18.304 18.261333c-6.613333-2.133333-35.242667-17.792-71.893333-38.4l-25.386667-14.293333c-61.269333-34.730667-134.101333-76.672-164.821333-93.738667-30.421333-12.202667-6.101333-24.448-6.101333-24.448l79.274666-48.810667s-48.768-61.013333-115.84-91.52c-73.088-36.693333-140.16-42.752-225.493333-12.245333-54.912 18.261333-121.941333 73.258667-164.608 152.576L147.584 310.613333S226.816 188.586667 348.672 127.445333c121.984-67.2 274.304-48.853333 371.84 18.261334z" fill="#d4237a" p-id="9569"></path></svg>