<?xml version="1.0" standalone="no"?><!DOCTYPE svg PUBLIC "-//W3C//DTD SVG 1.1//EN" "http://www.w3.org/Graphics/SVG/1.1/DTD/svg11.dtd"><svg t="1711108779167" class="icon" viewBox="0 0 1024 1024" version="1.1" xmlns="http://www.w3.org/2000/svg" p-id="12503" xmlns:xlink="http://www.w3.org/1999/xlink" width="200" height="200"><path d="M896 42.666667H128c-12.8 0-21.333333 8.533333-21.333333 21.333333v896c0 12.8 8.533333 21.333333 21.333333 21.333333h768c12.8 0 21.333333-8.533333 21.333333-21.333333V64c0-12.8-8.533333-21.333333-21.333333-21.333333z m-21.333333 896H149.333333V85.333333h725.333334v853.333334zM234.666667 128H192v64h42.666667V128z m597.333333 0h-42.666667v64h42.666667V128z m-192 746.666667h192v-42.666667h-192v42.666667z m-142.933333-305.066667c4.266667 4.266667 10.666667 6.4 14.933333 6.4s10.666667-2.133333 14.933333-6.4l64-64c8.533333-8.533333 8.533333-21.333333 0-29.866667l-64-64c-8.533333-8.533333-21.333333-8.533333-29.866666 0l-64 64c-8.533333 8.533333-8.533333 21.333333 0 29.866667l64 64z m14.933333-113.066667l34.133333 34.133334-34.133333 34.133333-34.133333-34.133333 34.133333-34.133334zM264.533333 876.8c4.266667 2.133333 8.533333 4.266667 12.8 4.266667h4.266667c6.4-2.133333 10.666667-6.4 14.933333-10.666667l59.733334-117.333333 36.266666 32c4.266667 4.266667 8.533333 6.4 14.933334 6.4h230.4c6.4 0 10.666667-2.133333 14.933333-6.4l151.466667-160c4.266667-4.266667 6.4-8.533333 6.4-14.933334V373.333333c0-6.4-2.133333-10.666667-6.4-14.933333l-151.466667-160c-4.266667-4.266667-8.533333-6.4-14.933333-6.4H407.466667c-6.4 0-10.666667 2.133333-14.933334 6.4l-172.8 160c-4.266667 4.266667-6.4 10.666667-6.4 14.933333v236.8c0 6.4 2.133333 10.666667 6.4 14.933334l72.533334 66.133333-108.8 85.333333c-4.266667 4.266667-8.533333 10.666667-8.533334 17.066667s2.133333 12.8 8.533334 17.066667l81.066666 66.133333z m-8.533333-277.333333V381.866667l160-147.2h211.2l138.666667 147.2v219.733333L629.333333 746.666667h-211.2l-38.4-34.133334 32-61.866666c4.266667-8.533333 2.133333-19.2-6.4-25.6-8.533333-6.4-19.2-6.4-27.733333 0l-51.2 40.533333-70.4-66.133333z m68.266667 119.466666l-53.333334 106.666667-40.533333-32 93.866667-74.666667z" fill="#13227a" p-id="12504"></path></svg>