<?xml version="1.0" standalone="no"?><!DOCTYPE svg PUBLIC "-//W3C//DTD SVG 1.1//EN" "http://www.w3.org/Graphics/SVG/1.1/DTD/svg11.dtd"><svg t="1711013062425" class="icon" viewBox="0 0 1024 1024" version="1.1" xmlns="http://www.w3.org/2000/svg" p-id="1565" xmlns:xlink="http://www.w3.org/1999/xlink" width="200" height="200"><path d="M536.832 502.08c3.776-3.328 5.632-8.512 5.632-15.68 0-7.168-1.92-12.288-5.76-15.36a24.32 24.32 0 0 0-15.68-4.48h-26.816v40.448h26.816a23.424 23.424 0 0 0 15.808-4.928z" fill="#1afa29" p-id="1566"></path><path d="M274.112 274.112h475.776v475.776H274.112V274.112z m149.824 295.808a61.824 61.824 0 0 0 19.072-36.608h-28.48a42.944 42.944 0 0 1-7.296 16c-5.248 6.528-12.928 9.856-23.04 9.856a30.4 30.4 0 0 1-24.32-11.52c-6.4-7.68-9.536-19.2-9.536-34.688 0-15.36 3.008-27.328 9.088-35.712a28.8 28.8 0 0 1 24.704-12.672c10.24 0 17.984 2.944 23.232 8.96 2.944 3.328 5.312 8.32 7.168 14.912h28.8a49.28 49.28 0 0 0-9.6-25.664c-10.688-15.168-27.584-22.784-50.752-22.784a57.6 57.6 0 0 0-42.688 17.024c-12.864 12.992-19.328 31.488-19.328 55.488 0 22.208 5.632 39.68 16.96 52.48 11.328 12.672 26.88 19.008 46.72 19.008 15.936 0 29.056-4.736 39.296-14.08z m99.456-39.232c15.296 0 27.008-3.328 35.2-10.048 8.192-6.72 12.352-18.176 12.352-34.432 0-14.848-4.16-25.856-12.352-32.96-8.192-7.04-19.2-10.624-33.024-10.624h-59.904v137.536h28.544v-49.472h29.184z m150.4-88.064v84.48a47.744 47.744 0 0 1-3.328 20.8c-3.456 7.68-11.072 11.52-22.656 11.52-11.712 0-19.328-3.84-22.784-11.52a47.744 47.744 0 0 1-3.328-20.736v-84.48h-29.248v84.48c0 14.592 2.304 25.984 6.848 34.112 8.512 14.976 24.704 22.4 48.512 22.4s39.936-7.424 48.384-22.4c4.544-8.128 6.848-19.52 6.848-34.112v-84.48h-29.248z" fill="#1afa29" p-id="1567"></path><path d="M928.832 371.328h-67.712V475.52h67.712v72.96h-67.712v104.192h67.712v67.776h-72.96v72.96c0 36.48-31.232 67.712-67.712 67.712h-67.712v67.776h-72.96v-67.776H543.232v67.776H475.52v-67.776H371.328v67.776H303.552v-72.96h-72.96c-36.48 0-67.712-31.296-67.712-67.776v-67.712H95.104v-72.96h67.776V543.296H95.104V475.52h67.776V371.328H95.104V303.552h72.96v-72.96c0-36.48 31.296-67.712 67.776-67.712h67.712V95.104h67.776v67.776H475.52V95.104h72.96v67.776h104.192V95.104h67.776v72.96h72.96c36.48 0 67.712 31.296 67.712 67.776v67.712h67.712v67.776zM235.84 788.16h557.504v-552.32H235.84v552.32z" fill="#1afa29" p-id="1568"></path></svg>