<?xml version="1.0" standalone="no"?><!DOCTYPE svg PUBLIC "-//W3C//DTD SVG 1.1//EN" "http://www.w3.org/Graphics/SVG/1.1/DTD/svg11.dtd"><svg t="1711108697634" class="icon" viewBox="0 0 1024 1024" version="1.1" xmlns="http://www.w3.org/2000/svg" p-id="11226" xmlns:xlink="http://www.w3.org/1999/xlink" width="200" height="200"><path d="M364.373333 579.114667c9.898667 0 18.410667-1.536 25.514667-4.586667 7.125333-3.072 12.501333-7.36 16.170667-12.864 3.669333-5.504 5.482667-11.861333 5.482666-19.072 0-6.144-1.28-11.498667-3.925333-16.085333a30.229333 30.229333 0 0 0-10.794667-11.029334 42.346667 42.346667 0 0 0-15.722666-5.482666c7.04-2.026667 12.778667-5.610667 17.237333-10.773334 4.48-5.141333 6.698667-11.626667 6.698667-19.413333 0-9.365333-3.413333-16.704-10.282667-22.037333-6.826667-5.333333-17.28-7.978667-31.36-7.978667H320v129.322667h44.373333z m-6.869333-77.248h-12.309333v-33.493334h13.226666c6.613333 0 11.690667 1.237333 15.253334 3.690667 3.584 2.474667 5.354667 6.165333 5.354666 11.029333 0 3.456-0.853333 6.613333-2.624 9.472a18.474667 18.474667 0 0 1-7.509333 6.784c-3.242667 1.685333-7.04 2.517333-11.392 2.517334z m2.24 58.496h-14.549333v-39.658667h13.034666c8.938667 0 15.744 1.706667 20.458667 5.098667 4.693333 3.392 7.04 8.384 7.04 14.997333 0 6.186667-2.133333 11.008-6.464 14.421333-4.309333 3.413333-10.816 5.141333-19.52 5.141334z m100.394667 18.773333v-129.344h-25.984v129.322667h25.984z m87.808 1.770667c13.632 0 25.536-2.773333 35.669333-8.32a56.96 56.96 0 0 0 23.466667-23.701334c5.461333-10.261333 8.213333-22.314667 8.213333-36.138666 0-12.842667-2.517333-24.170667-7.552-33.92a53.888 53.888 0 0 0-21.888-22.741334c-9.557333-5.397333-20.970667-8.085333-34.261333-8.085333-13.866667 0-25.877333 2.773333-36.032 8.341333s-17.92 13.461333-23.36 23.68c-5.418667 10.218667-8.106667 22.144-8.106667 35.776 0 12.970667 2.517333 24.362667 7.573333 34.154667 5.056 9.813333 12.394667 17.408 22.016 22.826667 9.6 5.418667 21.034667 8.128 34.261334 8.128z m1.344-20.096c-8.405333 0-15.466667-2.048-21.184-6.122667a36.501333 36.501333 0 0 1-12.757334-16.64 64 64 0 0 1-4.202666-23.872c0-8.384 1.472-16.085333 4.416-23.082667 2.944-6.997333 7.36-12.586667 13.269333-16.746666 5.888-4.16 13.056-6.250667 21.525333-6.250667 8.810667 0 16.021333 2.048 21.653334 6.165333 5.632 4.117333 9.728 9.6 12.288 16.512 2.56 6.912 3.84 14.784 3.84 23.594667a61.866667 61.866667 0 0 1-4.373334 23.978667 36.48 36.48 0 0 1-13.098666 16.469333c-5.802667 3.989333-12.928 5.994667-21.376 5.994667z m122.261333 20.096c9.365333 0 17.472-1.514667 24.341333-4.565334 6.890667-3.029333 12.202667-7.530667 15.957334-13.482666 3.733333-5.952 5.610667-13.226667 5.610666-21.781334 0-6.250667-1.130667-11.626667-3.413333-16.128a33.984 33.984 0 0 0-10.112-11.733333 92.842667 92.842667 0 0 0-17.28-9.834667c-7.68-3.456-13.312-6.186667-16.874667-8.128a28.288 28.288 0 0 1-8.042666-6.122666 11.306667 11.306667 0 0 1-2.688-7.552c0-4.48 1.706667-7.744 5.098666-9.813334 3.392-2.090667 7.914667-3.136 13.568-3.136 9.6 0 19.754667 2.624 30.464 7.872l4.992-20.821333a61.717333 61.717333 0 0 0-16.064-5.482667A91.392 91.392 0 0 0 677.546667 448c-8.64 0-16.298667 1.450667-22.954667 4.330667a35.285333 35.285333 0 0 0-15.637333 12.629333c-3.754667 5.546667-5.632 12.16-5.632 19.84 0 6.122667 1.258667 11.413333 3.754666 15.850667 2.496 4.437333 5.973333 8.256 10.453334 11.434666 4.48 3.2 10.090667 6.272 16.874666 9.237334 6.549333 2.858667 11.605333 5.269333 15.146667 7.189333 3.541333 1.941333 6.442667 4.245333 8.704 6.890667 2.261333 2.645333 3.413333 5.781333 3.413333 9.429333 0 4.629333-1.706667 8.384-5.141333 11.242667-3.413333 2.858667-8.384 4.288-14.869333 4.288-4.842667 0-10.325333-0.789333-16.490667-2.346667a83.072 83.072 0 0 1-16.576-6.058667l-7.68 20.010667c5.418667 2.688 11.776 4.842667 19.072 6.485333 7.296 1.642667 14.506667 2.453333 21.568 2.453334z" fill="#bfbfbf" p-id="11227"></path><path d="M469.333333 810.666667a74.666667 74.666667 0 1 1 0 149.333333 74.666667 74.666667 0 0 1 0-149.333333z m0 42.666666a32 32 0 1 0 0 64 32 32 0 0 0 0-64z m426.666667-533.333333a74.666667 74.666667 0 1 1 0 149.333333 74.666667 74.666667 0 0 1 0-149.333333z m0 42.666667a32 32 0 1 0 0 64 32 32 0 0 0 0-64zM469.333333 53.333333a74.666667 74.666667 0 1 1 0 149.333334 74.666667 74.666667 0 0 1 0-149.333334z m0 42.666667a32 32 0 1 0 0 64 32 32 0 0 0 0-64z" fill="#bfbfbf" p-id="11228"></path><path d="M896 542.549333a21.333333 21.333333 0 0 1 21.184 18.858667l0.149333 2.474667V896a21.333333 21.333333 0 0 1-18.837333 21.184L896 917.333333H639.445333a21.333333 21.333333 0 0 1-2.474666-42.517333l2.474666-0.149333H874.666667V563.882667a21.333333 21.333333 0 0 1 18.837333-21.184l2.496-0.149334zM409.642667 106.666667a21.333333 21.333333 0 0 1 2.474666 42.517333L409.642667 149.333333H149.333333v725.333334h260.245334a21.333333 21.333333 0 0 1 21.184 18.837333l0.149333 2.496a21.333333 21.333333 0 0 1-18.858667 21.184L409.6 917.333333H128a21.333333 21.333333 0 0 1-21.184-18.837333L106.666667 896V128a21.333333 21.333333 0 0 1 18.837333-21.184L128 106.666667h281.642667zM896 106.666667a21.333333 21.333333 0 0 1 21.184 18.837333L917.333333 128v205.653333a21.333333 21.333333 0 0 1-42.517333 2.496L874.666667 333.653333V149.333333H640.426667a21.333333 21.333333 0 0 1-21.184-18.837333L619.114667 128a21.333333 21.333333 0 0 1 18.837333-21.184L640.426667 106.666667H896z" fill="#bfbfbf" p-id="11229"></path></svg>