<?xml version="1.0" standalone="no"?><!DOCTYPE svg PUBLIC "-//W3C//DTD SVG 1.1//EN" "http://www.w3.org/Graphics/SVG/1.1/DTD/svg11.dtd"><svg t="1711108816108" class="icon" viewBox="0 0 1199 1024" version="1.1" xmlns="http://www.w3.org/2000/svg" p-id="13731" xmlns:xlink="http://www.w3.org/1999/xlink" width="234.1796875" height="200"><path d="M357.581891 843.743276H40.905459a40.905459 40.905459 0 0 1-40.905459-40.90546V40.905459a40.905459 40.905459 0 0 1 40.905459-40.905459h1046.020773a40.905459 40.905459 0 0 1 40.905459 40.905459v205.209055h-81.810919V81.810919H81.810919v680.121438h275.770972zM356.559254 942.189081h409.054594v81.810919h-409.054594z" p-id="13732" fill="#2c2c2c"></path><path d="M872.6498 754.296671a148.691345 148.691345 0 1 1 148.691345-148.691345 148.827696 148.827696 0 0 1-148.691345 148.691345z m0-250.409587a101.786418 101.786418 0 1 0 101.718243 101.718242 101.92277 101.92277 0 0 0-101.718243-101.718242z" p-id="13733" fill="#2c2c2c"></path><path d="M971.368309 942.120905h-197.70972l-10.090014-80.924633a277.816245 277.816245 0 0 1-57.608522-33.33795l-74.993342 31.701731-99.195739-171.393875 65.176032-49.291078a271.066844 271.066844 0 0 1 0-66.471372l-65.176032-49.291078 98.991212-171.393875 74.993342 31.701731a277.816245 277.816245 0 0 1 57.813049-33.337949l10.158189-80.924634h197.709721l10.29454 81.197337a275.566445 275.566445 0 0 1 57.199468 33.201598l75.606924-31.838083 98.991211 171.393875-65.107856 49.291078a271.066844 271.066844 0 0 1 0 66.471372l65.107856 49.291078-99.195739 171.530227-74.993342-31.701731a277.339015 277.339015 0 0 1-57.540346 33.337949z m-156.463382-46.973102h115.012516l8.453795-67.766711 13.635153-4.908655a229.820506 229.820506 0 0 0 68.175766-39.678296l11.044474-9.203728 62.994408 26.656724 57.9494-99.672969-54.540612-41.314514 2.454327-14.044208a237.31984 237.31984 0 0 0 3.408789-39.61012 229.479627 229.479627 0 0 0-3.476964-39.473768l-2.454328-14.112384 54.540613-41.314514-57.540347-99.672969-63.335286 26.793076-10.976298-9.203728a231.797603 231.797603 0 0 0-68.175766-39.61012l-13.635153-4.976831-8.521971-68.175766h-115.012516l-8.521971 67.766711-13.635153 4.908655a230.979494 230.979494 0 0 0-68.516645 39.678296l-10.976298 9.203728-62.994407-26.656724-57.131292 99.945672 54.540613 40.90546-2.454328 14.112383a231.456724 231.456724 0 0 0 0 79.152064l2.454328 14.044208-54.540613 41.314514 57.540346 99.672969 62.994408-26.656724 10.976298 9.203728a230.979494 230.979494 0 0 0 68.516645 39.678296l13.635153 4.908655z" p-id="13734" fill="#2c2c2c"></path></svg>