<?xml version="1.0" standalone="no"?><!DOCTYPE svg PUBLIC "-//W3C//DTD SVG 1.1//EN" "http://www.w3.org/Graphics/SVG/1.1/DTD/svg11.dtd"><svg t="1711108753382" class="icon" viewBox="0 0 1024 1024" version="1.1" xmlns="http://www.w3.org/2000/svg" p-id="11382" xmlns:xlink="http://www.w3.org/1999/xlink" width="200" height="200"><path d="M989.866667 252.586667C989.866667 109.226667 914.773333 34.133333 771.413333 34.133333H252.586667C105.813333 34.133333 34.133333 109.226667 34.133333 252.586667v518.826666c0 146.773333 71.68 215.04 218.453334 218.453334h518.826666c143.36-3.413333 218.453333-71.68 218.453334-218.453334V252.586667zM771.413333 102.4C870.4 102.4 921.6 153.6 921.6 252.586667v518.826666c0 98.986667-51.2 146.773333-150.186667 150.186667H252.586667C153.6 918.186667 102.4 870.4 102.4 771.413333V252.586667C102.4 153.6 153.6 102.4 252.586667 102.4h518.826666z" p-id="11383"></path><path d="M808.96 740.693333c-6.826667-6.826667-17.066667-10.24-23.893333-10.24h-337.92c-6.826667 0-17.066667 3.413333-23.893334 10.24-6.826667 6.826667-10.24 17.066667-10.24 23.893334 0 10.24 3.413333 17.066667 10.24 23.893333 6.826667 6.826667 17.066667 10.24 23.893334 10.24H785.066667c6.826667 0 17.066667-3.413333 23.893333-10.24 6.826667-6.826667 10.24-13.653333 10.24-23.893333 0-6.826667-3.413333-17.066667-10.24-23.893334zM526.165333 440.7296a30.754133 30.754133 0 0 0-9.659733-21.4016l-238.933333-211.968c-4.8128-4.334933-14.472533-8.6016-24.132267-8.6016s-19.319467 4.266667-24.132267 8.567467c-7.236267 6.417067-9.659733 12.834133-9.659733 21.4016s4.8128 17.134933 9.659733 21.4016l238.933334 211.968c4.8128 4.266667 14.472533 8.567467 24.132266 8.567466s16.896-2.1504 24.132267-8.567466a30.685867 30.685867 0 0 0 9.659733-21.367467z" p-id="11384"></path><path d="M253.44 682.666667c9.659733 0 19.319467-4.266667 24.132267-8.567467l238.933333-211.968a30.890667 30.890667 0 0 0 9.659733-21.4016 30.754133 30.754133 0 0 0-9.659733-21.4016c-7.236267-6.417067-14.472533-8.567467-24.132267-8.567467s-19.319467 4.266667-24.132266 8.567467l-238.933334 211.968c-4.8128 4.266667-9.659733 12.834133-9.659733 21.4016s2.423467 14.984533 9.659733 21.4016c4.8128 4.3008 14.472533 8.567467 24.132267 8.567467z" p-id="11385"></path></svg>